<svg xmlns="http://www.w3.org/2000/svg" viewBox="0 0 64 64" id="construction-cart">
  <path fill="#687d87" d="M63.76 46.03h-.22c-.07-.48-.19-.94-.36-1.37l.19-.11c.12-.07.16-.22.09-.33l-.57-.99a.237.237 0 0 0-.33-.09l-.19.11c-.29-.37-.63-.71-1-1l.11-.19c.07-.12.03-.27-.09-.33l-.99-.57a.233.233 0 0 0-.33.09l-.11.19c-.43-.17-.89-.3-1.37-.36v-.22c0-.14-.11-.24-.24-.24H57.2c-.13 0-.24.11-.24.24v.22c-.48.07-.94.19-1.37.36l-.11-.19a.237.237 0 0 0-.33-.09l-.99.57c-.12.07-.16.22-.09.33l.11.19c-.37.29-.71.63-1 1l-.19-.11a.233.233 0 0 0-.33.09l-.57.99c-.07.12-.03.27.09.33l.19.11c-.17.43-.3.89-.36 1.37h-.22c-.14 0-.24.11-.24.24v1.15c0 .13.11.24.24.24h.22c.07.48.19.94.36 1.37l-.19.11c-.12.07-.16.22-.09.33l.57.99c.07.12.22.16.33.09l.19-.11c.29.37.63.71 1 1l-.11.19c-.07.12-.03.27.09.33l.99.57c.12.07.27.03.33-.09l.11-.19c.43.17.89.3 1.37.36v.22c0 .13.11.24.24.24h1.15c.14 0 .24-.11.24-.24v-.22c.48-.07.94-.19 1.37-.36l.11.19c.07.12.22.16.33.09l.99-.57c.12-.07.16-.22.09-.33l-.11-.19c.37-.29.71-.63 1-1l.19.11c.12.07.27.03.33-.09l.57-.99c.07-.12.03-.27-.09-.33l-.19-.11c.17-.43.3-.89.36-1.37h.22c.14 0 .24-.11.24-.24v-1.15c0-.13-.11-.24-.24-.24z"></path>
  <path fill="#506c72" d="M61.66 46.85a3.92 3.92 0 1 1-7.84 0c0-2.17 1.75-3.92 3.92-3.92 2.17.01 3.92 1.76 3.92 3.92z"></path>
  <path fill="#eff3f5" d="M59.51 46.85c0 .98-.79 1.77-1.77 1.77s-1.77-.79-1.77-1.77.79-1.77 1.77-1.77c.98.01 1.77.8 1.77 1.77z"></path>
  <path fill="#445b69" d="M62.94 37.55h-3.66l-3.56-7.57a.95.95 0 0 0-1.26-.45c-.47.22-.68.79-.45 1.26l3.18 6.76h-33.7c-1.21 0-2.29-.77-2.69-1.92l-5.54-16.16h3.57c.49 0 .89-.42.89-.95s-.4-.95-.89-.95h-4.22l-2.04-5.94a.95.95 0 0 0-.9-.64H.95c-.53.01-.95.43-.95.95s.42.95.95.95h10.06l8 23.36a4.74 4.74 0 0 0 4.48 3.2h2.63l2.53 11.99h-2.19a.95.95 0 1 0 0 1.9h6.84a.95.95 0 1 0 0-1.9h-1.79l7.45-11.99h12.42l5.4 7.67a.944.944 0 0 0 1.31.23c.43-.3.53-.89.23-1.32l-4.63-6.58h9.23c.52 0 .95-.42.95-.95s-.41-.95-.93-.95zM30.25 49.88l-2.2-10.44h8.69l-6.49 10.44z"></path>
  <path fill="#dd655b" d="M7.75 13.2H1.26C.57 13.2 0 12.63 0 11.93c0-.7.56-1.26 1.26-1.26h6.49c.7 0 1.26.56 1.26 1.26s-.56 1.27-1.26 1.27z"></path>
  <path fill="#fbd984" d="M18.77 17.58c.83 4.09 2.19 7.64 3.92 11.21 1.59 3.13 4.01 5.18 7.47 5.41 5.89.31 8.83.34 14.46 0 8.2-.16 14.63-5.86 18.32-16.62H18.77z"></path>
</svg>
