<svg xmlns="http://www.w3.org/2000/svg" width="24" height="24" fill="none" viewBox="0 0 24 24" id="ReportCount">
  <path stroke="#595bd4" stroke-linecap="round" stroke-linejoin="round" stroke-width="1.5" d="M7.59777 17.8733H2.63789C2.03773 17.8733 1.62115 17.2754 1.82904 16.7124L5.17532 7.64978M7.59777 17.8733 7.72777 18.3602C7.82852 18.7375 8.17029 19 8.56082 19H21.669C22.2383 19 22.6513 18.458 22.5003 17.9091L19.6784 7.64978M7.59777 17.8733 5.17532 7.64978M5.17532 7.64978 5.94563 5.56357C6.07067 5.22491 6.39347 5 6.75448 5H18.2925C18.6806 5 19.0209 5.25933 19.1239 5.63356L19.6784 7.64978M5.17532 7.64978H12.4269 19.6784M10.9395 10.7819V15.4841M13.798 10.7819 13.799 15.4841M16.6388 10.7819 16.6397 15.4841M17.507 11.7185 10 13.8293" class="colorStroke656f7d svgStroke"></path>
</svg>
